<svg xmlns="http://www.w3.org/2000/svg" xmlns:xlink="http://www.w3.org/1999/xlink" viewBox="0 0 512 180">
  <defs>
    <filter id="b" width="103%" height="110.4%" x="-1.5%" y="-4.2%" filterUnits="objectBoundingBox">
      <feOffset dy="2" in="SourceAlpha" result="shadowOffsetOuter1"/>
      <feGaussianBlur in="shadowOffsetOuter1" result="shadowBlurOuter1" stdDeviation="2"/>
      <feColorMatrix in="shadowBlurOuter1" result="shadowMatrixOuter1" values="0 0 0 0 0 0 0 0 0 0 0 0 0 0 0 0 0 0 0.5 0"/>
      <feOffset dx="3" dy="-2" in="SourceAlpha" result="shadowOffsetOuter2"/>
      <feGaussianBlur in="shadowOffsetOuter2" result="shadowBlurOuter2" stdDeviation=".5"/>
      <feColorMatrix in="shadowBlurOuter2" result="shadowMatrixOuter2" values="0 0 0 0 1 0 0 0 0 0.184313725 0 0 0 0 0.662745098 0 0 0 0.5 0"/>
      <feOffset dx="-1" dy="2" in="SourceAlpha" result="shadowOffsetOuter3"/>
      <feGaussianBlur in="shadowOffsetOuter3" result="shadowBlurOuter3" stdDeviation=".5"/>
      <feColorMatrix in="shadowBlurOuter3" result="shadowMatrixOuter3" values="0 0 0 0 0 0 0 0 0 0.956862745 0 0 0 0 1 0 0 0 0.5 0"/>
      <feMerge>
        <feMergeNode in="shadowMatrixOuter1"/>
        <feMergeNode in="shadowMatrixOuter2"/>
        <feMergeNode in="shadowMatrixOuter3"/>
      </feMerge>
    </filter>
    <path id="a" d="M90.6 31.8h1.9c5 0 8.7.3 11.2.7a25.5 25.5 0 0 1 7.4 2.1l.4-.1.3-.1.2-.1.3-.2h.3l.3-.2h.2c1.3-.5 3.2-1 5.9-1.4 2.5-.3 6.2-.5 11.2-.5h1.9c5 0 8.7.2 11.2.5 2.6.4 4.6.9 5.9 1.4 2.5.9 4.2 2 5.4 3.1l5.6 4.8.1 46.7h.1c2.3 1.7 4.3 4 6 6.9l.2.4c1.7 3.4 3.1 8.3 3.1 15 0 5.5-1 11-3.3 16.6-2.5 5.5-5.4 9-8.4 11.5a22.9 22.9 0 0 1-14.9 5.3c-6.6 0-12.4-1.5-17.3-4.2a44 44 0 0 1-18.7 4.2c-15.7 0-26.6-5-34-12.6-6.8-7.3-11.5-18.8-11.5-36V45.3c4-7.7 6.7-9.6 9.3-10.7l.2-.1.5-.2.3-.1.7-.3c1.4-.5 3.4-1.1 6.2-1.5 2.6-.3 6.5-.6 11.8-.6Zm330-.8a85 85 0 0 1 24.6 3.2 35 35 0 0 1 11.5 5.7c6 4.8 8 10.5 8 16.2 0 4.3-1.3 10.1-5.6 17.3l-.7 1-.7 1.3-.2.3.2.2a34 34 0 0 1 9.2 23.5v.5a42 42 0 0 1-13.3 32c-8 7.3-19.6 12-35.9 12a68 68 0 0 1-26.2-5 33.7 33.7 0 0 1-12.7-8.7 24.1 24.1 0 0 1-6.3-16.4 38.9 38.9 0 0 1 8-23.4l.1-.2-.2-.4a41.7 41.7 0 0 1-4.4-18.7v-.6c0-13.6 5.3-23.6 15-30.6 8.2-6 18-9.2 29.6-9.2Zm-142.1 1.1h3.2c4.3 0 7.5.2 9.6.4 2 .1 3.4.4 4.4.6 2 .5 3.4 1.1 4.3 1.6l8.5 4.5.3 92c-5.4 7.3-8 9-11 10h-.3a45.2 45.2 0 0 1-6.6 1.3c-2.6.3-6.4.4-11.5.4H277c-4.8 0-8.5-.1-11-.3-2.1-.2-3.7-.5-4.8-.8a18 18 0 0 1-4.7-1.8l-8-4.6-.3-92.5c7-8 9.5-8.9 13.3-9.7a35 35 0 0 1 5-.7c2.7-.2 6.7-.4 12-.4ZM178.7 1l1.7.1c4.6.2 8 .4 10.3.7 2.1.3 3.7.7 4.8 1 2.1.6 3.6 1.4 4.7 2.1l7.3 4.7.2 121.6c-6.5 8.5-9.2 9.3-13 10.3-1.2.4-3 .7-5.6 1-3 .2-7.5.4-13.5.4h-2.3l-9.3-.6c-2.2-.2-3.7-.6-4.8-1a15 15 0 0 1-4.9-2.3l-6.9-4.8-.1-114.8c0-4 1.2-7.9 4.4-11.4 1.3-1.4 3.1-3 5.8-4.2 1.6-.7 3.9-1.5 7.1-2a95 95 0 0 1 14.1-.8Zm143.5 0 1.7.1c4.6.2 8 .4 10.3.7 2.2.3 3.8.7 4.8 1 2.2.6 3.6 1.4 4.7 2.1l7.3 4.7.2 121.6c-6.5 8.5-9.1 9.3-13 10.3-1.2.4-3 .7-5.6 1-3 .2-7.5.4-13.5.4h-2.3l-9.3-.6c-2.1-.2-3.7-.6-4.8-1a15 15 0 0 1-4.9-2.3l-6.8-4.8-.2-114.8c0-4 1.2-7.9 4.5-11.4 1.3-1.4 3-3 5.7-4.2 1.6-.7 4-1.5 7.1-2a95 95 0 0 1 14.1-.8Zm42.5 0 1.6.1c4.6.2 8 .4 10.3.7 2.2.3 3.8.7 4.9 1 2 .6 3.6 1.4 4.6 2.1l7.3 4.7.2 121.6c-6.4 8.5-9.1 9.3-12.9 10.3-1.3.4-3.1.7-5.7 1-3 .2-7.4.4-13.4.4h-2.3l-9.4-.6c-2.1-.2-3.7-.6-4.8-1-2.2-.6-3.7-1.5-4.8-2.3l-7-4.8V19.3c0-4 1.1-7.9 4.4-11.4a18 18 0 0 1 5.7-4.2c1.6-.7 4-1.5 7.2-2 3-.5 7.8-.8 14-.8ZM52.3 0c10.8 0 20.3 2 28.5 5.9 3.9 1.6 7.4 4.6 9.5 10.1.7 2 1.3 4.5 1.3 7.9 0 3.1-1 8.3-3.9 15.4-1.7 4-3.5 7-5.2 9.4l-.1.2c.4 2.4.7 5.5.8 9.2v1.5c-.1 5.7-1 9.9-2 12.7a20.5 20.5 0 0 1-5 8 18 18 0 0 1-6.5 4.2h-.1v44.3c-4 7.9-6.6 9.7-9.1 10.9l-.3.1-.7.3-.3.1-.3.1h-.1a23 23 0 0 1-6.5 1.7c-2.8.4-7 .6-12.5.6h-1.5c-5.1 0-9-.3-11.6-.7-2.8-.4-5-1.1-6.3-1.7a17.5 17.5 0 0 1-5.6-3.8l-4.6-4.6-.2-48.5c-2-1.2-3.8-2.8-5.5-5l-.2-.4c-1.2-1.7-2.4-4-3.2-7.4-.5-2.4-1-6.1-1-11 0-5.3.4-9.1 1-11.6a20 20 0 0 1 9.5-13.6h.3v-.6a38.7 38.7 0 0 1 11-23l.4-.2C29.3 3.9 39.2 0 52.3 0Zm185.8 0c10.8 0 20.3 2 28.5 5.9 3.9 1.6 7.4 4.6 9.5 10.1.7 2 1.3 4.5 1.3 7.9 0 3.1-1 8.3-3.9 15.4-1.7 4-3.5 7-5.2 9.4l-.1.2c.4 2.4.7 5.5.8 9.2v1.5c-.1 5.7-1 9.9-2 12.7a20.5 20.5 0 0 1-5 8 18 18 0 0 1-6.5 4.2h-.1v44.3c-4 7.9-6.6 9.7-9.1 10.9l-.3.1-.7.3-.3.1-.3.1h-.1a23 23 0 0 1-6.5 1.7c-2.8.4-7 .6-12.5.6H224c-5.1 0-9-.3-11.6-.7-2.8-.4-5-1.1-6.3-1.7a17.5 17.5 0 0 1-5.6-3.8l-4.6-4.6-.2-48.5h-.1c-2-1.2-3.8-2.8-5.5-5l-.2-.4c-1.2-1.7-2.4-4-3.2-7.4-.6-2.4-1-6.1-1-11 0-5.3.4-9.1 1-11.6a20 20 0 0 1 9.5-13.6h.3v-.6a38.7 38.7 0 0 1 11-23l.4-.2A42.7 42.7 0 0 1 238 0ZM278 0h2.8c4.5 0 8 .1 10.2.3l4.4.6c2 .5 3.4 1 4.4 1.6l8.7 4.4.3 39.2c-6.4 7.4-9 8.8-12.3 9.6h-.4a56 56 0 0 1-5.7 1c-2.7.1-6.6.3-12 .3h-3.2c-4.2 0-7.4-.2-9.5-.4-2-.1-3.4-.4-4.4-.6a21 21 0 0 1-4.4-1.6l-8.5-4.5-.2-37c4.8-8.2 7.6-9.7 10.5-10.8h.3l1-.4a29 29 0 0 1 5.8-1.2c2.7-.3 6.8-.5 12.2-.5Z"/>
  </defs>
  <g fill="none">
    <g transform="translate(22.5 18)">
      <use xlink:href="#a" fill="#000" filter="url(#b)"/>
      <use xlink:href="#a" fill="#FFF"/>
    </g>
    <path fill="#FF2FA9" d="M48.5 87.3H41c-1.6 0-2.3-3.4-2.4-10v-.4c0-7 .8-10.4 2.4-10.4h7.6v-3.4c0-11 2.3-18.7 7-22.9A27.8 27.8 0 0 1 74.9 34c8.3 0 15.6 1.5 22 4.5.8.4 1.2 1.5 1.2 3.4 0 2-.9 5-2.6 9.3-1.8 4.2-3.3 6.7-4.5 7.3a20.5 20.5 0 0 0-11-3.3c-4 0-6 2.7-6 8.1v3.3h12.9c1.9 0 2.8 3.3 2.8 10v.8c0 6.8-1.3 10.1-3.6 10.1h-10v55.3c0 1.2-4.6 1.8-13.8 1.8H61c-8.3 0-12.5-.7-12.5-1.8V87.3Zm51.7-19.8c0-1.2 4.3-1.7 13-1.8h1.7c8 .1 12 .7 12 1.8V113c0 5.2 1.8 7.8 5 7.8 2.6 0 5.4-1 8.5-3.3v-50c0-1 4.1-1.6 12.4-1.6h1.8c8.2 0 12.3.6 12.3 1.6v51.1h4c3.6 0 5.4 3.4 5.4 10.2 0 3.4-.7 6.9-2.2 10.4-2 4.6-4.9 6.9-8.4 6.9-7 0-12.1-2.9-15.5-8.6l-.1.2a30.3 30.3 0 0 1-20.5 8.4c-10 0-17.5-2.5-22.3-7.6-4.8-5-7.1-13.4-7.1-25v-46Zm114 75.8c0 1-5.3 1.4-16 1.4h-2c-7-.2-10.4-.6-10.4-1.3V37.2c0-1.6 5-2.3 15.1-2.3h1.4c8 .3 11.9.8 11.9 1.5v106.9Zm20.1-56h-7.6c-1.6 0-2.3-3.4-2.4-10v-.4c0-7 .8-10.4 2.4-10.4h7.6v-3.4c0-11 2.3-18.7 7-22.9a27.8 27.8 0 0 1 19.4-6.3c8.3 0 15.6 1.5 22 4.5.8.4 1.2 1.5 1.2 3.4 0 2-.9 5-2.6 9.3-1.8 4.2-3.3 6.7-4.6 7.3a20.5 20.5 0 0 0-10.9-3.3c-4 0-6 2.7-6 8.1v3.3h12.9c1.9 0 2.8 3.3 2.8 10v.8c0 6.8-1.3 10.1-3.6 10.1h-10v55.3c0 1.2-4.6 1.8-13.8 1.8h-1.3c-8.3 0-12.5-.7-12.5-1.8V87.3Zm81 56.3c0 .8-4.5 1.2-13.4 1.2h-2.3c-8.6 0-12.9-.4-12.9-1V67c0-.7 4.8-1 14.3-1h3.1c7.5 0 11.2.3 11.2.9v76.6Zm0-85.8c0 .7-4.8 1-14.3 1h-3c-7.5 0-11.2-.3-11.2-.9V35.5c0-1 4.6-1.6 13.8-1.6h2.8c8 0 12 .4 12 1v22.9Zm42.4 85.5c0 1-5.3 1.4-15.9 1.4h-2.1c-7-.2-10.4-.6-10.4-1.3V37.2c0-1.6 5-2.3 15.2-2.3h1.3c8 .3 12 .8 12 1.5v106.9Zm42.4 0c0 1-5.3 1.4-15.9 1.4h-2.1c-6.9-.2-10.3-.6-10.3-1.3V37.2c0-1.6 5-2.3 15-2.3h1.4c8 .3 12 .8 12 1.5v106.9Zm17.4-26.9 1 .7a41 41 0 0 0 19 7c3 0 4.6-1.1 4.6-3.3 0-1.5-2.7-3.6-8.1-6-13-5.4-19.5-14-19.5-26.1 0-7.7 2.8-13.6 8.4-17.7a34 34 0 0 1 20.2-6c7.9 0 14.5.8 20 2.5 5.4 1.6 8.2 3.8 8.2 6.5 0 2.3-1.1 5.3-3.4 9l-.6 1c-1.9 3.2-3.2 4.9-4 5.1a29.3 29.3 0 0 0-14.5-3.7c-2.8 0-4.2 1-4.2 3a4 4 0 0 0 1.6 3.2c1 .8 3 1.8 5.7 3l1.5.7 6.1 3c2 1 4 2.5 6.5 4.4 5 4 7.5 9.1 7.5 15.5 0 8.3-2.8 15-8.3 20.2-5.5 5.1-13.8 7.7-25 7.7-7.3 0-14-1.3-20-3.8-6.1-2.5-9.1-5.9-9.1-10.3 0-2.9.7-6 2-9.2 1.5-3.2 2.9-5.3 4.4-6.4Z"/>
  </g>
</svg>
